<svg width="21" height="20" viewBox="0 0 21 20" fill="none" xmlns="http://www.w3.org/2000/svg">
<g clip-path="url(#clip0_309_53)">
<path d="M10.2732 0.625C10.0433 0.625056 9.82294 0.716382 9.66042 0.878902C9.4979 1.04142 9.40658 1.26183 9.40652 1.49167V11.3788L6.09214 8.06438C6.01165 7.9839 5.9161 7.92007 5.81094 7.87652C5.70579 7.83297 5.59308 7.81055 5.47925 7.81057C5.24939 7.81059 5.02894 7.90192 4.86641 8.06448C4.70389 8.22703 4.61259 8.4475 4.61261 8.67737C4.61263 8.90723 4.70397 9.12768 4.86652 9.29021L9.66026 14.0833C9.82286 14.2458 10.0433 14.3371 10.2732 14.3371C10.5031 14.3371 10.7235 14.2458 10.8861 14.0833L15.6799 9.28938C15.8424 9.12684 15.9338 8.9064 15.9338 8.67653C15.9338 8.44667 15.8424 8.2262 15.68 8.06364C15.5174 7.90109 15.297 7.80975 15.0671 7.80973C14.8372 7.80972 14.6168 7.90101 14.4542 8.06354L11.1399 11.3788V1.49167C11.1398 1.26183 11.0485 1.04142 10.886 0.878902C10.7234 0.716382 10.503 0.625056 10.2732 0.625Z" fill="#DFD7D3"/>
<path d="M1.76401 12.0845C1.53415 12.0845 1.31371 12.1758 1.15118 12.3382C0.988648 12.5008 0.897339 12.7213 0.897339 12.9511V15.8069C0.898387 16.7529 1.27465 17.6599 1.94357 18.3288C2.61251 18.9978 3.51946 19.374 4.46546 19.375H16.0792C17.0252 19.374 17.9322 18.9978 18.6011 18.3288C19.27 17.6599 19.6463 16.7529 19.6473 15.8069V12.9511C19.6473 12.8373 19.6249 12.7246 19.5813 12.6195C19.5378 12.5143 19.474 12.4188 19.3934 12.3382C19.313 12.2578 19.2175 12.194 19.1123 12.1505C19.0072 12.1069 18.8944 12.0845 18.7807 12.0845C18.6669 12.0845 18.5541 12.1069 18.449 12.1505C18.3439 12.194 18.2483 12.2578 18.1679 12.3382C18.0873 12.4188 18.0236 12.5143 17.98 12.6195C17.9365 12.7246 17.914 12.8373 17.914 12.9511V15.8069C17.9135 16.2934 17.72 16.7598 17.376 17.1037C17.032 17.4477 16.5657 17.6411 16.0792 17.6417H4.46546C3.97902 17.6411 3.51265 17.4477 3.16868 17.1037C2.82471 16.7598 2.63123 16.2934 2.63067 15.8069V12.9511C2.63069 12.8373 2.60831 12.7246 2.56476 12.6195C2.52122 12.5143 2.45737 12.4187 2.37689 12.3382C2.29641 12.2577 2.20086 12.1939 2.09569 12.1504C1.99054 12.1068 1.87783 12.0845 1.76401 12.0845Z" fill="#DFD7D3"/>
</g>
<defs>
<clipPath id="clip0_309_53">
<rect width="20" height="20" fill="white" transform="translate(0.272339)"/>
</clipPath>
</defs>
</svg>
